<mxfile host="app.diagrams.net" modified="2024-02-12T12:42:23.310Z" agent="Mozilla/5.0 (Windows NT 10.0; Win64; x64) AppleWebKit/537.36 (KHTML, like Gecko) Chrome/121.0.0.0 Safari/537.36 Edg/121.0.0.0" etag="itLbxE9ZW-DexK1bbCs2" version="23.1.2" type="device">
  <diagram id="C5RBs43oDa-KdzZeNtuy" name="Page-1">
    <mxGraphModel dx="1829" dy="569" grid="1" gridSize="10" guides="1" tooltips="1" connect="1" arrows="1" fold="1" page="1" pageScale="1" pageWidth="827" pageHeight="1169" math="0" shadow="0">
      <root>
        <mxCell id="WIyWlLk6GJQsqaUBKTNV-0" />
        <mxCell id="WIyWlLk6GJQsqaUBKTNV-1" parent="WIyWlLk6GJQsqaUBKTNV-0" />
        <mxCell id="4d_KfCgPEdf9yGPTjCIY-5" style="edgeStyle=orthogonalEdgeStyle;rounded=0;orthogonalLoop=1;jettySize=auto;html=1;entryX=0.5;entryY=0;entryDx=0;entryDy=0;" edge="1" parent="WIyWlLk6GJQsqaUBKTNV-1" source="4d_KfCgPEdf9yGPTjCIY-1" target="4d_KfCgPEdf9yGPTjCIY-2">
          <mxGeometry relative="1" as="geometry" />
        </mxCell>
        <mxCell id="4d_KfCgPEdf9yGPTjCIY-1" value="Начало" style="strokeWidth=2;html=1;shape=mxgraph.flowchart.terminator;whiteSpace=wrap;" vertex="1" parent="WIyWlLk6GJQsqaUBKTNV-1">
          <mxGeometry x="-560" y="80" width="120" height="40" as="geometry" />
        </mxCell>
        <mxCell id="4d_KfCgPEdf9yGPTjCIY-7" style="edgeStyle=orthogonalEdgeStyle;rounded=0;orthogonalLoop=1;jettySize=auto;html=1;entryX=0.5;entryY=0;entryDx=0;entryDy=0;" edge="1" parent="WIyWlLk6GJQsqaUBKTNV-1" source="4d_KfCgPEdf9yGPTjCIY-2" target="4d_KfCgPEdf9yGPTjCIY-6">
          <mxGeometry relative="1" as="geometry" />
        </mxCell>
        <mxCell id="4d_KfCgPEdf9yGPTjCIY-2" value="Ввод v1, v2, t, s" style="shape=parallelogram;perimeter=parallelogramPerimeter;whiteSpace=wrap;html=1;fixedSize=1;" vertex="1" parent="WIyWlLk6GJQsqaUBKTNV-1">
          <mxGeometry x="-560" y="160" width="120" height="40" as="geometry" />
        </mxCell>
        <mxCell id="4d_KfCgPEdf9yGPTjCIY-9" style="edgeStyle=orthogonalEdgeStyle;rounded=0;orthogonalLoop=1;jettySize=auto;html=1;entryX=0.5;entryY=0;entryDx=0;entryDy=0;" edge="1" parent="WIyWlLk6GJQsqaUBKTNV-1" source="4d_KfCgPEdf9yGPTjCIY-6" target="4d_KfCgPEdf9yGPTjCIY-8">
          <mxGeometry relative="1" as="geometry" />
        </mxCell>
        <mxCell id="4d_KfCgPEdf9yGPTjCIY-6" value="s = (v1+v2)*t" style="rounded=0;whiteSpace=wrap;html=1;" vertex="1" parent="WIyWlLk6GJQsqaUBKTNV-1">
          <mxGeometry x="-560" y="240" width="120" height="40" as="geometry" />
        </mxCell>
        <mxCell id="4d_KfCgPEdf9yGPTjCIY-11" style="edgeStyle=orthogonalEdgeStyle;rounded=0;orthogonalLoop=1;jettySize=auto;html=1;" edge="1" parent="WIyWlLk6GJQsqaUBKTNV-1" source="4d_KfCgPEdf9yGPTjCIY-8" target="4d_KfCgPEdf9yGPTjCIY-10">
          <mxGeometry relative="1" as="geometry" />
        </mxCell>
        <mxCell id="4d_KfCgPEdf9yGPTjCIY-8" value="Вывод s" style="shape=parallelogram;perimeter=parallelogramPerimeter;whiteSpace=wrap;html=1;fixedSize=1;" vertex="1" parent="WIyWlLk6GJQsqaUBKTNV-1">
          <mxGeometry x="-560" y="320" width="120" height="40" as="geometry" />
        </mxCell>
        <mxCell id="4d_KfCgPEdf9yGPTjCIY-10" value="Конец" style="strokeWidth=2;html=1;shape=mxgraph.flowchart.terminator;whiteSpace=wrap;" vertex="1" parent="WIyWlLk6GJQsqaUBKTNV-1">
          <mxGeometry x="-560" y="400" width="120" height="40" as="geometry" />
        </mxCell>
      </root>
    </mxGraphModel>
  </diagram>
</mxfile>
